<?xml version="1.0" encoding="UTF-8"?>
<svg id="Layer_2" data-name="Layer 2" xmlns="http://www.w3.org/2000/svg" viewBox="0 0 1297.13 245.57">
  <defs>
    <style>
      .cls-1 {
        fill: #f97316;
      }

      .cls-1, .cls-2 {
        stroke-width: 0px;
      }

      .cls-2 {
        fill: #fff;
      }
    </style>
  </defs>
  <g id="Layer_1-2" data-name="Layer 1">
    <g>
      <g>
        <g>
          <path class="cls-1" d="m78.67,101.53H22.87c-12.61,0-22.87-10.26-22.87-22.87V22.87C0,10.26,10.26,0,22.87,0h55.8c12.61,0,22.87,10.26,22.87,22.87v55.8c0,12.61-10.26,22.87-22.87,22.87ZM22.87,19.24c-2,0-3.63,1.63-3.63,3.62v55.8c0,2,1.63,3.63,3.63,3.63h55.8c2,0,3.62-1.63,3.62-3.63V22.87c0-2-1.63-3.62-3.62-3.62H22.87Z"/>
          <path class="cls-1" d="m161.15,67.1h-19.24V19.24h-31.81V0h32.18c10.41,0,18.87,8.47,18.87,18.87v48.23Z"/>
          <path class="cls-1" d="m226.69,76.72h-38.98c-10.41,0-18.87-8.47-18.87-18.87V18.87c0-10.41,8.47-18.87,18.87-18.87h38.98c10.41,0,18.87,8.47,18.87,18.87v38.98c0,10.41-8.47,18.87-18.87,18.87Zm-38.61-19.24h38.24V19.24h-38.24v38.24Z"/>
          <path class="cls-1" d="m67.1,161.15H18.87c-10.41,0-18.87-8.47-18.87-18.87v-28.25h19.24v27.88h47.86v19.24Z"/>
          <path class="cls-1" d="m142.27,161.15h-48.23v-19.24h47.86v-32.22c0-10.41,8.47-18.87,18.87-18.87h54.45v19.24h-54.08v32.22c0,10.41-8.47,18.87-18.87,18.87Z"/>
          <path class="cls-1" d="m226.69,161.15h-48.23v-19.24h47.86v-47.86h19.24v48.23c0,10.41-8.47,18.87-18.87,18.87Z"/>
          <path class="cls-1" d="m57.85,245.57H18.87c-10.41,0-18.87-8.47-18.87-18.87v-38.98c0-10.41,8.47-18.87,18.87-18.87h38.98c10.41,0,18.87,8.47,18.87,18.87v38.98c0,10.41-8.47,18.87-18.87,18.87Zm-38.61-19.24h38.24v-38.24H19.24v38.24Z"/>
          <path class="cls-1" d="m151.52,245.57h-48.23c-10.41,0-18.87-8.47-18.87-18.87v-48.23h19.24v47.86h47.86v19.24Z"/>
          <path class="cls-1" d="m226.69,245.57h-38.98c-10.41,0-18.87-8.47-18.87-18.87v-38.98c0-10.41,8.47-18.87,18.87-18.87h38.98c10.41,0,18.87,8.47,18.87,18.87v38.98c0,10.41-8.47,18.87-18.87,18.87Zm-38.61-19.24h38.24v-38.24h-38.24v38.24Z"/>
          <rect class="cls-1" x="134.86" y="178.46" width="19.24" height="28.74"/>
        </g>
        <path class="cls-1" d="m54.7,64.38h-14.39c-1.71,0-3.1-1.38-3.11-3.09l-.05-6.6v-14.39c0-1.71,1.38-3.1,3.09-3.11l6.6-.05h14.39c1.71,0,3.1,1.38,3.11,3.09l.05,6.6v14.39c0,1.71-1.38,3.1-3.09,3.11l-6.6.05Z"/>
        <path class="cls-1" d="m117.42,126.22h-12.9c-1.53,0-2.78-1.24-2.79-2.77l-.04-5.92v-12.9c0-1.53,1.24-2.78,2.77-2.79l5.92-.04h12.9c1.53,0,2.78,1.24,2.79,2.77l.04,5.92v12.9c0,1.53-1.24,2.78-2.77,2.79l-5.92.04Z"/>
      </g>
      <g>
        <path class="cls-2" d="m474.14,152.98c4.4-10.43,6.6-21.74,6.6-33.94s-2.2-23.75-6.6-34.17-10.62-19.5-18.65-27.22c-8.03-7.72-17.49-13.7-28.38-17.95-10.89-4.25-22.82-6.37-35.79-6.37s-24.9,2.12-35.79,6.37c-10.89,4.25-20.35,10.23-28.38,17.95-8.03,7.72-14.25,16.76-18.65,27.1-4.4,10.35-6.6,21.7-6.6,34.05s2.24,23.55,6.72,34.05c4.48,10.5,10.77,19.62,18.88,27.34,8.11,7.72,17.61,13.75,28.49,18.07,10.89,4.32,22.82,6.49,35.79,6.49s24.63-2.12,35.45-6.37c4.25-1.67,8.28-3.63,12.11-5.85l24.03,24.03,25.02-25.02-22.93-22.93c3.41-4.84,6.32-10.05,8.68-15.65Zm-82.82,11c-6.49,0-12.32-1.04-17.49-3.13-5.18-2.08-9.62-5.1-13.32-9.04-3.71-3.94-6.53-8.69-8.46-14.25-1.93-5.56-2.9-11.81-2.9-18.76,0-9.11,1.7-17.03,5.1-23.75,3.4-6.72,8.26-11.89,14.59-15.52,6.33-3.63,13.82-5.44,22.47-5.44,6.49,0,12.31,1.04,17.49,3.13,5.17,2.08,9.61,5.1,13.32,9.03,3.71,3.94,6.52,8.65,8.46,14.13,1.93,5.48,2.9,11.62,2.9,18.42,0,5.73-.68,11-2.02,15.82l-23-23-25.02,25.02,24.52,24.52c-4.97,1.87-10.51,2.82-16.64,2.82Z"/>
        <path class="cls-2" d="m604.92,129.47c8.96-4.17,15.94-9.96,20.96-17.37,5.02-7.41,7.53-16.06,7.53-25.95s-2.47-18.53-7.41-25.95c-4.94-7.41-11.74-13.21-20.39-17.38-8.65-4.17-18.69-6.25-30.12-6.25h-72.97v164.94h46.33v-65.79h.64l41.99,65.79h52.59l-48.28-68.71c3.2-.91,6.26-2.01,9.12-3.34Zm-36.83-59.54c6.33,0,11.16,1.55,14.48,4.63,3.32,3.09,4.98,7.18,4.98,12.28s-1.66,9.19-4.98,12.28c-3.32,3.09-8.15,4.63-14.48,4.63h-19.23v-33.82h19.23Z"/>
        <polygon class="cls-2" points="743.79 134.08 684.15 38.65 661.91 38.65 661.91 201.51 693.41 201.51 693.41 104.26 732.79 168.15 754.57 168.15 793.95 104.58 793.95 201.51 825.46 201.51 825.46 38.65 803.22 38.65 743.79 134.08"/>
        <polygon class="cls-2" points="890.33 132.01 964.23 132.01 964.23 104.91 890.33 104.91 890.33 66.45 970.94 66.45 970.94 38.65 890.33 38.65 881.99 38.65 858.82 38.65 858.82 201.51 881.99 201.51 890.33 201.51 972.1 201.51 972.1 173.71 890.33 173.71 890.33 132.01"/>
        <polygon class="cls-2" points="1102.07 143.81 1020.52 38.65 998.51 38.65 998.51 201.51 1030.02 201.51 1030.02 96.71 1111.1 201.51 1133.57 201.51 1133.57 38.65 1102.07 38.65 1102.07 143.81"/>
        <path class="cls-2" d="m1265.39,38.65v101.01c0,7.11-1.51,13.28-4.52,18.53-3.01,5.25-7.03,9.31-12.05,12.16-5.02,2.86-10.85,4.29-17.49,4.29s-12.59-1.43-17.84-4.29c-5.25-2.86-9.42-6.91-12.51-12.16-3.09-5.25-4.63-11.5-4.63-18.77V38.65h-31.74v99.85c0,12.51,2.9,23.71,8.69,33.59,5.79,9.89,13.71,17.69,23.75,23.4,10.04,5.72,21.46,8.57,34.29,8.57s24.17-2.86,34.05-8.57c9.88-5.71,17.64-13.47,23.28-23.28,5.63-9.81,8.46-20.97,8.46-33.48V38.65h-31.74Z"/>
      </g>
    </g>
  </g>
</svg>